  0
SECTION
  2
HEADER
  9
$ACADVER
  1
AC1009
  9
$FILLMODE
 70
1
  9
$EXTMIN
 10
-1.6085
 20
2.2015
 30
0.0000
  9
$EXTMAX
 10
29.5485
 20
33.3585
 30
0.0000
  0
ENDSEC
  0
SECTION
  2
TABLES
  0
TABLE
  2
LTYPE
 70
1
  0
LTYPE
  2
CONTINUOUS
 70
64
  3
Solid line
 72
65
 73
0
 40
0
  0
ENDTAB
  0
TABLE
  2
LAYER
 70
255
  0
LAYER
  2
1
 70
64
 62
22
  6
CONTINUOUS
  0
LAYER
  2
16
 70
64
 62
175
  6
CONTINUOUS
  0
LAYER
  2
17
 70
64
 62
82
  6
CONTINUOUS
  0
LAYER
  2
18
 70
64
 62
82
  6
CONTINUOUS
  0
LAYER
  2
19
 70
64
 62
53
  6
CONTINUOUS
  0
LAYER
  2
20
 70
64
 62
30
  6
CONTINUOUS
  0
LAYER
  2
21
 70
64
 62
253
  6
CONTINUOUS
  0
LAYER
  2
22
 70
64
 62
253
  6
CONTINUOUS
  0
LAYER
  2
23
 70
64
 62
7
  6
CONTINUOUS
  0
LAYER
  2
24
 70
64
 62
7
  6
CONTINUOUS
  0
LAYER
  2
25
 70
64
 62
253
  6
CONTINUOUS
  0
LAYER
  2
26
 70
64
 62
253
  6
CONTINUOUS
  0
LAYER
  2
27
 70
64
 62
253
  6
CONTINUOUS
  0
LAYER
  2
28
 70
64
 62
253
  6
CONTINUOUS
  0
LAYER
  2
39
 70
64
 62
22
  6
CONTINUOUS
  0
LAYER
  2
40
 70
64
 62
175
  6
CONTINUOUS
  0
LAYER
  2
41
 70
64
 62
22
  6
CONTINUOUS
  0
LAYER
  2
42
 70
64
 62
175
  6
CONTINUOUS
  0
LAYER
  2
43
 70
64
 62
82
  6
CONTINUOUS
  0
LAYER
  2
48
 70
64
 62
253
  6
CONTINUOUS
  0
LAYER
  2
49
 70
64
 62
253
  6
CONTINUOUS
  0
LAYER
  2
51
 70
64
 62
253
  6
CONTINUOUS
  0
LAYER
  2
52
 70
64
 62
253
  6
CONTINUOUS
  0
LAYER
  2
100
 70
64
 62
253
  6
CONTINUOUS
  0
LAYER
  2
101
 70
64
 62
253
  6
CONTINUOUS
  0
LAYER
  2
102
 70
64
 62
253
  6
CONTINUOUS
  0
LAYER
  2
103
 70
64
 62
253
  6
CONTINUOUS
  0
LAYER
  2
104
 70
64
 62
253
  6
CONTINUOUS
  0
LAYER
  2
105
 70
64
 62
253
  6
CONTINUOUS
  0
LAYER
  2
106
 70
64
 62
253
  6
CONTINUOUS
  0
LAYER
  2
107
 70
64
 62
253
  6
CONTINUOUS
  0
LAYER
  2
108
 70
64
 62
253
  6
CONTINUOUS
  0
LAYER
  2
109
 70
64
 62
253
  6
CONTINUOUS
  0
LAYER
  2
110
 70
64
 62
253
  6
CONTINUOUS
  0
LAYER
  2
111
 70
64
 62
253
  6
CONTINUOUS
  0
LAYER
  2
112
 70
64
 62
253
  6
CONTINUOUS
  0
LAYER
  2
113
 70
64
 62
253
  6
CONTINUOUS
  0
LAYER
  2
114
 70
64
 62
253
  6
CONTINUOUS
  0
LAYER
  2
115
 70
64
 62
253
  6
CONTINUOUS
  0
LAYER
  2
116
 70
64
 62
253
  6
CONTINUOUS
  0
LAYER
  2
118
 70
64
 62
253
  6
CONTINUOUS
  0
LAYER
  2
121
 70
64
 62
253
  6
CONTINUOUS
  0
LAYER
  2
122
 70
64
 62
253
  6
CONTINUOUS
  0
LAYER
  2
123
 70
64
 62
253
  6
CONTINUOUS
  0
LAYER
  2
124
 70
64
 62
253
  6
CONTINUOUS
  0
LAYER
  2
125
 70
64
 62
253
  6
CONTINUOUS
  0
LAYER
  2
126
 70
64
 62
253
  6
CONTINUOUS
  0
LAYER
  2
127
 70
64
 62
253
  6
CONTINUOUS
  0
LAYER
  2
128
 70
64
 62
253
  6
CONTINUOUS
  0
LAYER
  2
129
 70
64
 62
253
  6
CONTINUOUS
  0
LAYER
  2
131
 70
64
 62
253
  6
CONTINUOUS
  0
LAYER
  2
132
 70
64
 62
253
  6
CONTINUOUS
  0
LAYER
  2
144
 70
64
 62
253
  6
CONTINUOUS
  0
LAYER
  2
150
 70
64
 62
253
  6
CONTINUOUS
  0
LAYER
  2
151
 70
64
 62
253
  6
CONTINUOUS
  0
LAYER
  2
152
 70
64
 62
253
  6
CONTINUOUS
  0
LAYER
  2
153
 70
64
 62
253
  6
CONTINUOUS
  0
LAYER
  2
154
 70
64
 62
253
  6
CONTINUOUS
  0
LAYER
  2
155
 70
64
 62
253
  6
CONTINUOUS
  0
LAYER
  2
199
 70
64
 62
253
  6
CONTINUOUS
  0
LAYER
  2
200
 70
64
 62
253
  6
CONTINUOUS
  0
LAYER
  2
201
 70
64
 62
253
  6
CONTINUOUS
  0
LAYER
  2
202
 70
64
 62
253
  6
CONTINUOUS
  0
LAYER
  2
203
 70
64
 62
253
  6
CONTINUOUS
  0
LAYER
  2
204
 70
64
 62
253
  6
CONTINUOUS
  0
LAYER
  2
205
 70
64
 62
253
  6
CONTINUOUS
  0
LAYER
  2
206
 70
64
 62
253
  6
CONTINUOUS
  0
LAYER
  2
207
 70
64
 62
253
  6
CONTINUOUS
  0
LAYER
  2
208
 70
64
 62
253
  6
CONTINUOUS
  0
LAYER
  2
209
 70
64
 62
253
  6
CONTINUOUS
  0
LAYER
  2
210
 70
64
 62
253
  6
CONTINUOUS
  0
LAYER
  2
211
 70
64
 62
253
  6
CONTINUOUS
  0
LAYER
  2
212
 70
64
 62
253
  6
CONTINUOUS
  0
LAYER
  2
213
 70
64
 62
253
  6
CONTINUOUS
  0
LAYER
  2
214
 70
64
 62
253
  6
CONTINUOUS
  0
LAYER
  2
215
 70
64
 62
253
  6
CONTINUOUS
  0
LAYER
  2
216
 70
64
 62
253
  6
CONTINUOUS
  0
LAYER
  2
217
 70
64
 62
253
  6
CONTINUOUS
  0
LAYER
  2
218
 70
64
 62
253
  6
CONTINUOUS
  0
LAYER
  2
219
 70
64
 62
253
  6
CONTINUOUS
  0
LAYER
  2
220
 70
64
 62
253
  6
CONTINUOUS
  0
LAYER
  2
221
 70
64
 62
253
  6
CONTINUOUS
  0
LAYER
  2
222
 70
64
 62
253
  6
CONTINUOUS
  0
LAYER
  2
223
 70
64
 62
253
  6
CONTINUOUS
  0
LAYER
  2
224
 70
64
 62
253
  6
CONTINUOUS
  0
LAYER
  2
225
 70
64
 62
253
  6
CONTINUOUS
  0
LAYER
  2
226
 70
64
 62
253
  6
CONTINUOUS
  0
LAYER
  2
227
 70
64
 62
253
  6
CONTINUOUS
  0
LAYER
  2
228
 70
64
 62
253
  6
CONTINUOUS
  0
LAYER
  2
229
 70
64
 62
253
  6
CONTINUOUS
  0
LAYER
  2
230
 70
64
 62
253
  6
CONTINUOUS
  0
LAYER
  2
231
 70
64
 62
253
  6
CONTINUOUS
  0
LAYER
  2
232
 70
64
 62
253
  6
CONTINUOUS
  0
LAYER
  2
233
 70
64
 62
253
  6
CONTINUOUS
  0
LAYER
  2
248
 70
64
 62
253
  6
CONTINUOUS
  0
LAYER
  2
249
 70
64
 62
253
  6
CONTINUOUS
  0
LAYER
  2
250
 70
64
 62
253
  6
CONTINUOUS
  0
LAYER
  2
251
 70
64
 62
253
  6
CONTINUOUS
  0
LAYER
  2
254
 70
64
 62
253
  6
CONTINUOUS
  0
LAYER
  2
255
 70
64
 62
253
  6
CONTINUOUS
  0
ENDTAB
  0
ENDSEC
  0
SECTION
  2
BLOCKS
  0
BLOCK
  8
0
  2
RECT
 70
64
 10
0.0000
 20
0.0000
 30
0.0000
  3
RECT
  0
SOLID
  8
0
 10
-0.5000
 20
-0.5000
 30
0.0000
 11
0.5000
 21
-0.5000
 31
0.0000
 12
-0.5000
 22
0.5000
 32
0.0000
 13
0.5000
 23
0.5000
 33
0.0000
  0
ENDBLK
  8
0
  0
BLOCK
  8
0
  2
PIE
 70
64
 10
0.0000
 20
0.0000
 30
0.0000
  3
PIE
  0
POLYLINE
  8
0
 66
1
 10
0.0000
 20
0.0000
 30
0.0000
 40
0.5000
 41
0.5000
 70
0
  0
VERTEX
  8
0
 10
0.0000
 20
-0.2500
 30
0.0000
 42
1.0000
  0
VERTEX
  8
0
 10
0.0000
 20
0.2500
 30
0.0000
 42
1.0000
  0
VERTEX
  8
0
 10
0.0000
 20
-0.2500
 30
0.0000
  0
SEQEND
  8
0
  0
ENDBLK
  8
0
  0
BLOCK
  8
0
  2
OCTAGONP
 70
64
 10
0.0000
 20
0.0000
 30
0.0000
  3
OCTAGONP
  0
POLYLINE
  8
0
 66
1
 10
0.0000
 20
0.0000
 30
0.0000
 40
0.5000
 41
0.5000
 70
0
  0
VERTEX
  8
0
 10
-0.2500
 20
-0.1036
 30
0.0000
  0
VERTEX
  8
0
 10
-0.2500
 20
0.1036
 30
0.0000
  0
VERTEX
  8
0
 10
-0.1036
 20
0.2500
 30
0.0000
  0
VERTEX
  8
0
 10
0.1036
 20
0.2500
 30
0.0000
  0
VERTEX
  8
0
 10
0.2500
 20
0.1036
 30
0.0000
  0
VERTEX
  8
0
 10
0.2500
 20
-0.1036
 30
0.0000
  0
VERTEX
  8
0
 10
0.1036
 20
-0.2500
 30
0.0000
  0
VERTEX
  8
0
 10
-0.1036
 20
-0.2500
 30
0.0000
  0
VERTEX
  8
0
 10
-0.2500
 20
-0.1036
 30
0.0000
  0
VERTEX
  8
0
 10
-0.2500
 20
0.1036
 30
0.0000
  0
SEQEND
  8
0
  0
ENDBLK
  8
0
  0
BLOCK
  8
0
  2
SQUAREP
 70
64
 10
0.0000
 20
0.0000
 30
0.0000
  3
SQUAREP
  0
SOLID
  8
0
 10
-0.5000
 20
-0.5000
 30
0.0000
 11
0.5000
 21
-0.5000
 31
0.0000
 12
-0.5000
 22
0.5000
 32
0.0000
 13
0.5000
 23
0.5000
 33
0.0000
  0
ENDBLK
  8
0
  0
BLOCK
  8
0
  2
ROUNDP
 70
64
 10
0.0000
 20
0.0000
 30
0.0000
  3
ROUNDP
  0
POLYLINE
  8
0
 66
1
 10
0.0000
 20
0.0000
 30
0.0000
 40
0.5000
 41
0.5000
 70
0
  0
VERTEX
  8
0
 10
0.0000
 20
-0.2500
 30
0.0000
 42
1.0000
  0
VERTEX
  8
0
 10
0.0000
 20
0.2500
 30
0.0000
 42
1.0000
  0
VERTEX
  8
0
 10
0.0000
 20
-0.2500
 30
0.0000
  0
SEQEND
  8
0
  0
ENDBLK
  8
0
  0
BLOCK
  8
0
  2
ANNULUSP
 70
64
 10
0.0000
 20
0.0000
 30
0.0000
  3
ANNULUSP
  0
POLYLINE
  8
0
 66
1
 10
0.0000
 20
0.0000
 30
0.0000
 40
0.5000
 41
0.5000
 70
0
  0
VERTEX
  8
0
 10
0.0000
 20
-0.2500
 30
0.0000
 42
1.0000
  0
VERTEX
  8
0
 10
0.0000
 20
0.2500
 30
0.0000
 42
1.0000
  0
VERTEX
  8
0
 10
0.0000
 20
-0.2500
 30
0.0000
  0
SEQEND
  8
0
  0
ENDBLK
  8
0
  0
BLOCK
  8
0
  2
THERMALP
 70
64
 10
0.0000
 20
0.0000
 30
0.0000
  3
THERMALP
  0
POLYLINE
  8
0
 66
1
 10
0.0000
 20
0.0000
 30
0.0000
 40
0.1000
 41
0.1000
 70
0
  0
VERTEX
  8
0
 10
-0.2379
 20
0.4500
 30
0.0000
  0
VERTEX
  8
0
 10
0.2379
 20
0.4500
 30
0.0000
  0
SEQEND
  8
0
  0
POLYLINE
  8
0
 66
1
 10
0.0000
 20
0.0000
 30
0.0000
 40
0.0500
 41
0.0500
 70
0
  0
VERTEX
  8
0
 10
0.2379
 20
0.4250
 30
0.0000
 42
1.0000
  0
VERTEX
  8
0
 10
0.2379
 20
0.4750
 30
0.0000
  0
SEQEND
  8
0
  0
POLYLINE
  8
0
 66
1
 10
0.0000
 20
0.0000
 30
0.0000
 40
0.0500
 41
0.0500
 70
0
  0
VERTEX
  8
0
 10
-0.2379
 20
0.4750
 30
0.0000
 42
1.0000
  0
VERTEX
  8
0
 10
-0.2379
 20
0.4250
 30
0.0000
  0
SEQEND
  8
0
  0
POLYLINE
  8
0
 66
1
 10
0.0000
 20
0.0000
 30
0.0000
 40
0.1000
 41
0.1000
 70
0
  0
VERTEX
  8
0
 10
0.4500
 20
0.2379
 30
0.0000
  0
VERTEX
  8
0
 10
0.4500
 20
-0.2379
 30
0.0000
  0
SEQEND
  8
0
  0
POLYLINE
  8
0
 66
1
 10
0.0000
 20
0.0000
 30
0.0000
 40
0.0500
 41
0.0500
 70
0
  0
VERTEX
  8
0
 10
0.4250
 20
-0.2379
 30
0.0000
 42
1.0000
  0
VERTEX
  8
0
 10
0.4750
 20
-0.2379
 30
0.0000
  0
SEQEND
  8
0
  0
POLYLINE
  8
0
 66
1
 10
0.0000
 20
0.0000
 30
0.0000
 40
0.0500
 41
0.0500
 70
0
  0
VERTEX
  8
0
 10
0.4750
 20
0.2379
 30
0.0000
 42
1.0000
  0
VERTEX
  8
0
 10
0.4250
 20
0.2379
 30
0.0000
  0
SEQEND
  8
0
  0
POLYLINE
  8
0
 66
1
 10
0.0000
 20
0.0000
 30
0.0000
 40
0.1000
 41
0.1000
 70
0
  0
VERTEX
  8
0
 10
0.2379
 20
-0.4500
 30
0.0000
  0
VERTEX
  8
0
 10
-0.2379
 20
-0.4500
 30
0.0000
  0
SEQEND
  8
0
  0
POLYLINE
  8
0
 66
1
 10
0.0000
 20
0.0000
 30
0.0000
 40
0.0500
 41
0.0500
 70
0
  0
VERTEX
  8
0
 10
-0.2379
 20
-0.4250
 30
0.0000
 42
1.0000
  0
VERTEX
  8
0
 10
-0.2379
 20
-0.4750
 30
0.0000
  0
SEQEND
  8
0
  0
POLYLINE
  8
0
 66
1
 10
0.0000
 20
0.0000
 30
0.0000
 40
0.0500
 41
0.0500
 70
0
  0
VERTEX
  8
0
 10
0.2379
 20
-0.4750
 30
0.0000
 42
1.0000
  0
VERTEX
  8
0
 10
0.2379
 20
-0.4250
 30
0.0000
  0
SEQEND
  8
0
  0
POLYLINE
  8
0
 66
1
 10
0.0000
 20
0.0000
 30
0.0000
 40
0.1000
 41
0.1000
 70
0
  0
VERTEX
  8
0
 10
-0.4500
 20
-0.2379
 30
0.0000
  0
VERTEX
  8
0
 10
-0.4500
 20
0.2379
 30
0.0000
  0
SEQEND
  8
0
  0
POLYLINE
  8
0
 66
1
 10
0.0000
 20
0.0000
 30
0.0000
 40
0.0500
 41
0.0500
 70
0
  0
VERTEX
  8
0
 10
-0.4250
 20
0.2379
 30
0.0000
 42
1.0000
  0
VERTEX
  8
0
 10
-0.4750
 20
0.2379
 30
0.0000
  0
SEQEND
  8
0
  0
POLYLINE
  8
0
 66
1
 10
0.0000
 20
0.0000
 30
0.0000
 40
0.0500
 41
0.0500
 70
0
  0
VERTEX
  8
0
 10
-0.4750
 20
-0.2379
 30
0.0000
 42
1.0000
  0
VERTEX
  8
0
 10
-0.4250
 20
-0.2379
 30
0.0000
  0
SEQEND
  8
0
  0
ENDBLK
  8
0
  0
BLOCK
  8
0
  2
OCTAGONV
 70
64
 10
0.0000
 20
0.0000
 30
0.0000
  3
OCTAGONV
  0
POLYLINE
  8
0
 66
1
 10
0.0000
 20
0.0000
 30
0.0000
 40
0.5000
 41
0.5000
 70
0
  0
VERTEX
  8
0
 10
-0.2500
 20
-0.1036
 30
0.0000
  0
VERTEX
  8
0
 10
-0.2500
 20
0.1036
 30
0.0000
  0
VERTEX
  8
0
 10
-0.1036
 20
0.2500
 30
0.0000
  0
VERTEX
  8
0
 10
0.1036
 20
0.2500
 30
0.0000
  0
VERTEX
  8
0
 10
0.2500
 20
0.1036
 30
0.0000
  0
VERTEX
  8
0
 10
0.2500
 20
-0.1036
 30
0.0000
  0
VERTEX
  8
0
 10
0.1036
 20
-0.2500
 30
0.0000
  0
VERTEX
  8
0
 10
-0.1036
 20
-0.2500
 30
0.0000
  0
VERTEX
  8
0
 10
-0.2500
 20
-0.1036
 30
0.0000
  0
VERTEX
  8
0
 10
-0.2500
 20
0.1036
 30
0.0000
  0
SEQEND
  8
0
  0
ENDBLK
  8
0
  0
BLOCK
  8
0
  2
SQUAREV
 70
64
 10
0.0000
 20
0.0000
 30
0.0000
  3
SQUAREV
  0
SOLID
  8
0
 10
-0.5000
 20
-0.5000
 30
0.0000
 11
0.5000
 21
-0.5000
 31
0.0000
 12
-0.5000
 22
0.5000
 32
0.0000
 13
0.5000
 23
0.5000
 33
0.0000
  0
ENDBLK
  8
0
  0
BLOCK
  8
0
  2
ROUNDV
 70
64
 10
0.0000
 20
0.0000
 30
0.0000
  3
ROUNDV
  0
POLYLINE
  8
0
 66
1
 10
0.0000
 20
0.0000
 30
0.0000
 40
0.5000
 41
0.5000
 70
0
  0
VERTEX
  8
0
 10
0.0000
 20
-0.2500
 30
0.0000
 42
1.0000
  0
VERTEX
  8
0
 10
0.0000
 20
0.2500
 30
0.0000
 42
1.0000
  0
VERTEX
  8
0
 10
0.0000
 20
-0.2500
 30
0.0000
  0
SEQEND
  8
0
  0
ENDBLK
  8
0
  0
BLOCK
  8
0
  2
ANNULUSV
 70
64
 10
0.0000
 20
0.0000
 30
0.0000
  3
ANNULUSV
  0
POLYLINE
  8
0
 66
1
 10
0.0000
 20
0.0000
 30
0.0000
 40
0.5000
 41
0.5000
 70
0
  0
VERTEX
  8
0
 10
0.0000
 20
-0.2500
 30
0.0000
 42
1.0000
  0
VERTEX
  8
0
 10
0.0000
 20
0.2500
 30
0.0000
 42
1.0000
  0
VERTEX
  8
0
 10
0.0000
 20
-0.2500
 30
0.0000
  0
SEQEND
  8
0
  0
ENDBLK
  8
0
  0
BLOCK
  8
0
  2
THERMALV
 70
64
 10
0.0000
 20
0.0000
 30
0.0000
  3
THERMALV
  0
POLYLINE
  8
0
 66
1
 10
0.0000
 20
0.0000
 30
0.0000
 40
0.1000
 41
0.1000
 70
0
  0
VERTEX
  8
0
 10
-0.2379
 20
0.4500
 30
0.0000
  0
VERTEX
  8
0
 10
0.2379
 20
0.4500
 30
0.0000
  0
SEQEND
  8
0
  0
POLYLINE
  8
0
 66
1
 10
0.0000
 20
0.0000
 30
0.0000
 40
0.0500
 41
0.0500
 70
0
  0
VERTEX
  8
0
 10
0.2379
 20
0.4250
 30
0.0000
 42
1.0000
  0
VERTEX
  8
0
 10
0.2379
 20
0.4750
 30
0.0000
  0
SEQEND
  8
0
  0
POLYLINE
  8
0
 66
1
 10
0.0000
 20
0.0000
 30
0.0000
 40
0.0500
 41
0.0500
 70
0
  0
VERTEX
  8
0
 10
-0.2379
 20
0.4750
 30
0.0000
 42
1.0000
  0
VERTEX
  8
0
 10
-0.2379
 20
0.4250
 30
0.0000
  0
SEQEND
  8
0
  0
POLYLINE
  8
0
 66
1
 10
0.0000
 20
0.0000
 30
0.0000
 40
0.1000
 41
0.1000
 70
0
  0
VERTEX
  8
0
 10
0.4500
 20
0.2379
 30
0.0000
  0
VERTEX
  8
0
 10
0.4500
 20
-0.2379
 30
0.0000
  0
SEQEND
  8
0
  0
POLYLINE
  8
0
 66
1
 10
0.0000
 20
0.0000
 30
0.0000
 40
0.0500
 41
0.0500
 70
0
  0
VERTEX
  8
0
 10
0.4250
 20
-0.2379
 30
0.0000
 42
1.0000
  0
VERTEX
  8
0
 10
0.4750
 20
-0.2379
 30
0.0000
  0
SEQEND
  8
0
  0
POLYLINE
  8
0
 66
1
 10
0.0000
 20
0.0000
 30
0.0000
 40
0.0500
 41
0.0500
 70
0
  0
VERTEX
  8
0
 10
0.4750
 20
0.2379
 30
0.0000
 42
1.0000
  0
VERTEX
  8
0
 10
0.4250
 20
0.2379
 30
0.0000
  0
SEQEND
  8
0
  0
POLYLINE
  8
0
 66
1
 10
0.0000
 20
0.0000
 30
0.0000
 40
0.1000
 41
0.1000
 70
0
  0
VERTEX
  8
0
 10
0.2379
 20
-0.4500
 30
0.0000
  0
VERTEX
  8
0
 10
-0.2379
 20
-0.4500
 30
0.0000
  0
SEQEND
  8
0
  0
POLYLINE
  8
0
 66
1
 10
0.0000
 20
0.0000
 30
0.0000
 40
0.0500
 41
0.0500
 70
0
  0
VERTEX
  8
0
 10
-0.2379
 20
-0.4250
 30
0.0000
 42
1.0000
  0
VERTEX
  8
0
 10
-0.2379
 20
-0.4750
 30
0.0000
  0
SEQEND
  8
0
  0
POLYLINE
  8
0
 66
1
 10
0.0000
 20
0.0000
 30
0.0000
 40
0.0500
 41
0.0500
 70
0
  0
VERTEX
  8
0
 10
0.2379
 20
-0.4750
 30
0.0000
 42
1.0000
  0
VERTEX
  8
0
 10
0.2379
 20
-0.4250
 30
0.0000
  0
SEQEND
  8
0
  0
POLYLINE
  8
0
 66
1
 10
0.0000
 20
0.0000
 30
0.0000
 40
0.1000
 41
0.1000
 70
0
  0
VERTEX
  8
0
 10
-0.4500
 20
-0.2379
 30
0.0000
  0
VERTEX
  8
0
 10
-0.4500
 20
0.2379
 30
0.0000
  0
SEQEND
  8
0
  0
POLYLINE
  8
0
 66
1
 10
0.0000
 20
0.0000
 30
0.0000
 40
0.0500
 41
0.0500
 70
0
  0
VERTEX
  8
0
 10
-0.4250
 20
0.2379
 30
0.0000
 42
1.0000
  0
VERTEX
  8
0
 10
-0.4750
 20
0.2379
 30
0.0000
  0
SEQEND
  8
0
  0
POLYLINE
  8
0
 66
1
 10
0.0000
 20
0.0000
 30
0.0000
 40
0.0500
 41
0.0500
 70
0
  0
VERTEX
  8
0
 10
-0.4750
 20
-0.2379
 30
0.0000
 42
1.0000
  0
VERTEX
  8
0
 10
-0.4250
 20
-0.2379
 30
0.0000
  0
SEQEND
  8
0
  0
ENDBLK
  8
0
  0
ENDSEC
  0
SECTION
  2
ENTITIES
  0
POLYLINE
  8
20
 66
1
 10
0.0000
 20
0.0000
 30
0.0000
 40
0.1524
 41
0.1524
 70
0
  0
VERTEX
  8
20
 10
13.9700
 20
2.2777
 30
0.0000
 42
1.0000
  0
VERTEX
  8
20
 10
13.9700
 20
33.2823
 30
0.0000
 42
1.0000
  0
VERTEX
  8
20
 10
13.9700
 20
2.2777
 30
0.0000
  0
SEQEND
  8
0
  0
POINT
  8
24
 10
13.9700
 20
17.7800
 30
0.0000
  0
POLYLINE
  8
22
 66
1
 10
0.0000
 20
0.0000
 30
0.0000
 40
0.2000
 41
0.2000
 70
0
  0
VERTEX
  8
22
 10
5.9700
 20
13.7800
 30
0.0000
  0
VERTEX
  8
22
 10
5.9700
 20
21.7800
 30
0.0000
  0
SEQEND
  8
0
  0
POLYLINE
  8
22
 66
1
 10
0.0000
 20
0.0000
 30
0.0000
 40
0.1000
 41
0.1000
 70
0
  0
VERTEX
  8
22
 10
6.0200
 20
21.7800
 30
0.0000
 42
1.0000
  0
VERTEX
  8
22
 10
5.9200
 20
21.7800
 30
0.0000
  0
SEQEND
  8
0
  0
POLYLINE
  8
22
 66
1
 10
0.0000
 20
0.0000
 30
0.0000
 40
0.1000
 41
0.1000
 70
0
  0
VERTEX
  8
22
 10
5.9200
 20
13.7800
 30
0.0000
 42
1.0000
  0
VERTEX
  8
22
 10
6.0200
 20
13.7800
 30
0.0000
  0
SEQEND
  8
0
  0
POLYLINE
  8
22
 66
1
 10
0.0000
 20
0.0000
 30
0.0000
 40
0.2000
 41
0.2000
 70
0
  0
VERTEX
  8
22
 10
8.9700
 20
6.7800
 30
0.0000
  0
VERTEX
  8
22
 10
18.9700
 20
6.7800
 30
0.0000
  0
SEQEND
  8
0
  0
POLYLINE
  8
22
 66
1
 10
0.0000
 20
0.0000
 30
0.0000
 40
0.1000
 41
0.1000
 70
0
  0
VERTEX
  8
22
 10
18.9700
 20
6.7300
 30
0.0000
 42
1.0000
  0
VERTEX
  8
22
 10
18.9700
 20
6.8300
 30
0.0000
  0
SEQEND
  8
0
  0
POLYLINE
  8
22
 66
1
 10
0.0000
 20
0.0000
 30
0.0000
 40
0.1000
 41
0.1000
 70
0
  0
VERTEX
  8
22
 10
8.9700
 20
6.8300
 30
0.0000
 42
1.0000
  0
VERTEX
  8
22
 10
8.9700
 20
6.7300
 30
0.0000
  0
SEQEND
  8
0
  0
POLYLINE
  8
22
 66
1
 10
0.0000
 20
0.0000
 30
0.0000
 40
0.2000
 41
0.2000
 70
0
  0
VERTEX
  8
22
 10
8.9700
 20
6.7800
 30
0.0000
  0
VERTEX
  8
22
 10
8.9700
 20
10.7800
 30
0.0000
  0
SEQEND
  8
0
  0
POLYLINE
  8
22
 66
1
 10
0.0000
 20
0.0000
 30
0.0000
 40
0.1000
 41
0.1000
 70
0
  0
VERTEX
  8
22
 10
9.0200
 20
10.7800
 30
0.0000
 42
1.0000
  0
VERTEX
  8
22
 10
8.9200
 20
10.7800
 30
0.0000
  0
SEQEND
  8
0
  0
POLYLINE
  8
22
 66
1
 10
0.0000
 20
0.0000
 30
0.0000
 40
0.1000
 41
0.1000
 70
0
  0
VERTEX
  8
22
 10
8.9200
 20
6.7800
 30
0.0000
 42
1.0000
  0
VERTEX
  8
22
 10
9.0200
 20
6.7800
 30
0.0000
  0
SEQEND
  8
0
  0
POLYLINE
  8
22
 66
1
 10
0.0000
 20
0.0000
 30
0.0000
 40
0.2000
 41
0.2000
 70
0
  0
VERTEX
  8
22
 10
18.9700
 20
6.7800
 30
0.0000
  0
VERTEX
  8
22
 10
18.9700
 20
10.7800
 30
0.0000
  0
SEQEND
  8
0
  0
POLYLINE
  8
22
 66
1
 10
0.0000
 20
0.0000
 30
0.0000
 40
0.1000
 41
0.1000
 70
0
  0
VERTEX
  8
22
 10
19.0200
 20
10.7800
 30
0.0000
 42
1.0000
  0
VERTEX
  8
22
 10
18.9200
 20
10.7800
 30
0.0000
  0
SEQEND
  8
0
  0
POLYLINE
  8
22
 66
1
 10
0.0000
 20
0.0000
 30
0.0000
 40
0.1000
 41
0.1000
 70
0
  0
VERTEX
  8
22
 10
18.9200
 20
6.7800
 30
0.0000
 42
1.0000
  0
VERTEX
  8
22
 10
19.0200
 20
6.7800
 30
0.0000
  0
SEQEND
  8
0
  0
POLYLINE
  8
22
 66
1
 10
0.0000
 20
0.0000
 30
0.0000
 40
0.2000
 41
0.2000
 70
0
  0
VERTEX
  8
22
 10
22.9700
 20
12.7800
 30
0.0000
  0
VERTEX
  8
22
 10
25.9700
 20
12.7800
 30
0.0000
  0
SEQEND
  8
0
  0
POLYLINE
  8
22
 66
1
 10
0.0000
 20
0.0000
 30
0.0000
 40
0.1000
 41
0.1000
 70
0
  0
VERTEX
  8
22
 10
25.9700
 20
12.7300
 30
0.0000
 42
1.0000
  0
VERTEX
  8
22
 10
25.9700
 20
12.8300
 30
0.0000
  0
SEQEND
  8
0
  0
POLYLINE
  8
22
 66
1
 10
0.0000
 20
0.0000
 30
0.0000
 40
0.1000
 41
0.1000
 70
0
  0
VERTEX
  8
22
 10
22.9700
 20
12.8300
 30
0.0000
 42
1.0000
  0
VERTEX
  8
22
 10
22.9700
 20
12.7300
 30
0.0000
  0
SEQEND
  8
0
  0
POLYLINE
  8
22
 66
1
 10
0.0000
 20
0.0000
 30
0.0000
 40
0.2000
 41
0.2000
 70
0
  0
VERTEX
  8
22
 10
25.9700
 20
12.7800
 30
0.0000
  0
VERTEX
  8
22
 10
25.9700
 20
22.7800
 30
0.0000
  0
SEQEND
  8
0
  0
POLYLINE
  8
22
 66
1
 10
0.0000
 20
0.0000
 30
0.0000
 40
0.1000
 41
0.1000
 70
0
  0
VERTEX
  8
22
 10
26.0200
 20
22.7800
 30
0.0000
 42
1.0000
  0
VERTEX
  8
22
 10
25.9200
 20
22.7800
 30
0.0000
  0
SEQEND
  8
0
  0
POLYLINE
  8
22
 66
1
 10
0.0000
 20
0.0000
 30
0.0000
 40
0.1000
 41
0.1000
 70
0
  0
VERTEX
  8
22
 10
25.9200
 20
12.7800
 30
0.0000
 42
1.0000
  0
VERTEX
  8
22
 10
26.0200
 20
12.7800
 30
0.0000
  0
SEQEND
  8
0
  0
POLYLINE
  8
22
 66
1
 10
0.0000
 20
0.0000
 30
0.0000
 40
0.2000
 41
0.2000
 70
0
  0
VERTEX
  8
22
 10
25.9700
 20
22.7800
 30
0.0000
  0
VERTEX
  8
22
 10
22.9700
 20
22.7800
 30
0.0000
  0
SEQEND
  8
0
  0
POLYLINE
  8
22
 66
1
 10
0.0000
 20
0.0000
 30
0.0000
 40
0.1000
 41
0.1000
 70
0
  0
VERTEX
  8
22
 10
22.9700
 20
22.8300
 30
0.0000
 42
1.0000
  0
VERTEX
  8
22
 10
22.9700
 20
22.7300
 30
0.0000
  0
SEQEND
  8
0
  0
POLYLINE
  8
22
 66
1
 10
0.0000
 20
0.0000
 30
0.0000
 40
0.1000
 41
0.1000
 70
0
  0
VERTEX
  8
22
 10
25.9700
 20
22.7300
 30
0.0000
 42
1.0000
  0
VERTEX
  8
22
 10
25.9700
 20
22.8300
 30
0.0000
  0
SEQEND
  8
0
  0
POLYLINE
  8
22
 66
1
 10
0.0000
 20
0.0000
 30
0.0000
 40
0.2000
 41
0.2000
 70
0
  0
VERTEX
  8
22
 10
8.4700
 20
31.7800
 30
0.0000
  0
VERTEX
  8
22
 10
19.4700
 20
31.7800
 30
0.0000
  0
SEQEND
  8
0
  0
POLYLINE
  8
22
 66
1
 10
0.0000
 20
0.0000
 30
0.0000
 40
0.1000
 41
0.1000
 70
0
  0
VERTEX
  8
22
 10
19.4700
 20
31.7300
 30
0.0000
 42
1.0000
  0
VERTEX
  8
22
 10
19.4700
 20
31.8300
 30
0.0000
  0
SEQEND
  8
0
  0
POLYLINE
  8
22
 66
1
 10
0.0000
 20
0.0000
 30
0.0000
 40
0.1000
 41
0.1000
 70
0
  0
VERTEX
  8
22
 10
8.4700
 20
31.8300
 30
0.0000
 42
1.0000
  0
VERTEX
  8
22
 10
8.4700
 20
31.7300
 30
0.0000
  0
SEQEND
  8
0
  0
POLYLINE
  8
22
 66
1
 10
0.0000
 20
0.0000
 30
0.0000
 40
0.2000
 41
0.2000
 70
0
  0
VERTEX
  8
22
 10
19.4700
 20
31.7800
 30
0.0000
  0
VERTEX
  8
22
 10
19.4700
 20
24.7800
 30
0.0000
  0
SEQEND
  8
0
  0
POLYLINE
  8
22
 66
1
 10
0.0000
 20
0.0000
 30
0.0000
 40
0.1000
 41
0.1000
 70
0
  0
VERTEX
  8
22
 10
19.4200
 20
24.7800
 30
0.0000
 42
1.0000
  0
VERTEX
  8
22
 10
19.5200
 20
24.7800
 30
0.0000
  0
SEQEND
  8
0
  0
POLYLINE
  8
22
 66
1
 10
0.0000
 20
0.0000
 30
0.0000
 40
0.1000
 41
0.1000
 70
0
  0
VERTEX
  8
22
 10
19.5200
 20
31.7800
 30
0.0000
 42
1.0000
  0
VERTEX
  8
22
 10
19.4200
 20
31.7800
 30
0.0000
  0
SEQEND
  8
0
  0
POLYLINE
  8
22
 66
1
 10
0.0000
 20
0.0000
 30
0.0000
 40
0.2000
 41
0.2000
 70
0
  0
VERTEX
  8
22
 10
8.4700
 20
24.7800
 30
0.0000
  0
VERTEX
  8
22
 10
8.4700
 20
31.7800
 30
0.0000
  0
SEQEND
  8
0
  0
POLYLINE
  8
22
 66
1
 10
0.0000
 20
0.0000
 30
0.0000
 40
0.1000
 41
0.1000
 70
0
  0
VERTEX
  8
22
 10
8.5200
 20
31.7800
 30
0.0000
 42
1.0000
  0
VERTEX
  8
22
 10
8.4200
 20
31.7800
 30
0.0000
  0
SEQEND
  8
0
  0
POLYLINE
  8
22
 66
1
 10
0.0000
 20
0.0000
 30
0.0000
 40
0.1000
 41
0.1000
 70
0
  0
VERTEX
  8
22
 10
8.4200
 20
24.7800
 30
0.0000
 42
1.0000
  0
VERTEX
  8
22
 10
8.5200
 20
24.7800
 30
0.0000
  0
SEQEND
  8
0
  0
INSERT
  8
17
  2
ROUNDP
 10
21.4700
 20
11.2800
 30
0.0000
 41
3.0000
 42
3.0000
 43
1.0000
 50
0.0000
  0
INSERT
  8
17
  2
ROUNDP
 10
21.4700
 20
11.2800
 30
0.0000
 41
3.0000
 42
3.0000
 43
1.0000
 50
0.0000
  0
INSERT
  8
17
  2
ROUNDP
 10
6.4700
 20
11.2800
 30
0.0000
 41
3.0000
 42
3.0000
 43
1.0000
 50
0.0000
  0
INSERT
  8
17
  2
ROUNDP
 10
6.4700
 20
11.2800
 30
0.0000
 41
3.0000
 42
3.0000
 43
1.0000
 50
0.0000
  0
INSERT
  8
17
  2
ROUNDP
 10
6.4700
 20
24.2800
 30
0.0000
 41
3.0000
 42
3.0000
 43
1.0000
 50
0.0000
  0
INSERT
  8
17
  2
ROUNDP
 10
6.4700
 20
24.2800
 30
0.0000
 41
3.0000
 42
3.0000
 43
1.0000
 50
0.0000
  0
INSERT
  8
17
  2
ROUNDP
 10
21.4700
 20
24.2800
 30
0.0000
 41
3.0000
 42
3.0000
 43
1.0000
 50
0.0000
  0
INSERT
  8
17
  2
ROUNDP
 10
21.4700
 20
24.2800
 30
0.0000
 41
3.0000
 42
3.0000
 43
1.0000
 50
0.0000
  0
INSERT
  8
17
  2
ROUNDP
 10
11.4700
 20
8.7800
 30
0.0000
 41
1.5080
 42
1.5080
 43
1.0000
 50
0.0000
  0
INSERT
  8
17
  2
ROUNDP
 10
11.4700
 20
8.7800
 30
0.0000
 41
1.5080
 42
1.5080
 43
1.0000
 50
0.0000
  0
INSERT
  8
17
  2
ROUNDP
 10
13.9700
 20
8.7800
 30
0.0000
 41
1.5080
 42
1.5080
 43
1.0000
 50
0.0000
  0
INSERT
  8
17
  2
ROUNDP
 10
13.9700
 20
8.7800
 30
0.0000
 41
1.5080
 42
1.5080
 43
1.0000
 50
0.0000
  0
INSERT
  8
17
  2
ROUNDP
 10
16.4700
 20
8.7800
 30
0.0000
 41
1.5080
 42
1.5080
 43
1.0000
 50
0.0000
  0
INSERT
  8
17
  2
ROUNDP
 10
16.4700
 20
8.7800
 30
0.0000
 41
1.5080
 42
1.5080
 43
1.0000
 50
0.0000
  0
INSERT
  8
17
  2
ROUNDP
 10
22.9700
 20
15.2800
 30
0.0000
 41
1.5080
 42
1.5080
 43
1.0000
 50
0.0000
  0
INSERT
  8
17
  2
ROUNDP
 10
22.9700
 20
15.2800
 30
0.0000
 41
1.5080
 42
1.5080
 43
1.0000
 50
0.0000
  0
INSERT
  8
17
  2
ROUNDP
 10
22.9700
 20
17.7800
 30
0.0000
 41
1.5080
 42
1.5080
 43
1.0000
 50
0.0000
  0
INSERT
  8
17
  2
ROUNDP
 10
22.9700
 20
17.7800
 30
0.0000
 41
1.5080
 42
1.5080
 43
1.0000
 50
0.0000
  0
INSERT
  8
17
  2
ROUNDP
 10
22.9700
 20
20.2800
 30
0.0000
 41
1.5080
 42
1.5080
 43
1.0000
 50
0.0000
  0
INSERT
  8
17
  2
ROUNDP
 10
22.9700
 20
20.2800
 30
0.0000
 41
1.5080
 42
1.5080
 43
1.0000
 50
0.0000
  0
INSERT
  8
17
  2
ROUNDP
 10
10.9700
 20
25.7800
 30
0.0000
 41
1.8000
 42
1.8000
 43
1.0000
 50
0.0000
  0
INSERT
  8
17
  2
ROUNDP
 10
10.9700
 20
25.7800
 30
0.0000
 41
1.8000
 42
1.8000
 43
1.0000
 50
0.0000
  0
INSERT
  8
17
  2
ROUNDP
 10
16.9700
 20
25.7800
 30
0.0000
 41
1.8000
 42
1.8000
 43
1.0000
 50
0.0000
  0
INSERT
  8
17
  2
ROUNDP
 10
16.9700
 20
25.7800
 30
0.0000
 41
1.8000
 42
1.8000
 43
1.0000
 50
0.0000
  0
INSERT
  8
17
  2
ROUNDP
 10
10.9700
 20
29.7800
 30
0.0000
 41
1.8000
 42
1.8000
 43
1.0000
 50
0.0000
  0
INSERT
  8
17
  2
ROUNDP
 10
10.9700
 20
29.7800
 30
0.0000
 41
1.8000
 42
1.8000
 43
1.0000
 50
0.0000
  0
INSERT
  8
17
  2
ROUNDP
 10
16.9700
 20
29.7800
 30
0.0000
 41
1.8000
 42
1.8000
 43
1.0000
 50
0.0000
  0
INSERT
  8
17
  2
ROUNDP
 10
16.9700
 20
29.7800
 30
0.0000
 41
1.8000
 42
1.8000
 43
1.0000
 50
0.0000
  0
POLYLINE
  8
22
 66
1
 10
0.0000
 20
0.0000
 30
0.0000
 40
0.2032
 41
0.2032
 70
0
  0
VERTEX
  8
22
 10
4.8684
 20
18.9140
 30
0.0000
  0
VERTEX
  8
22
 10
4.0979
 20
18.9140
 30
0.0000
  0
SEQEND
  8
0
  0
POLYLINE
  8
22
 66
1
 10
0.0000
 20
0.0000
 30
0.0000
 40
0.1016
 41
0.1016
 70
0
  0
VERTEX
  8
22
 10
4.0979
 20
18.9648
 30
0.0000
 42
1.0000
  0
VERTEX
  8
22
 10
4.0979
 20
18.8632
 30
0.0000
  0
SEQEND
  8
0
  0
POLYLINE
  8
22
 66
1
 10
0.0000
 20
0.0000
 30
0.0000
 40
0.1016
 41
0.1016
 70
0
  0
VERTEX
  8
22
 10
4.8684
 20
18.8632
 30
0.0000
 42
1.0000
  0
VERTEX
  8
22
 10
4.8684
 20
18.9648
 30
0.0000
  0
SEQEND
  8
0
  0
POLYLINE
  8
22
 66
1
 10
0.0000
 20
0.0000
 30
0.0000
 40
0.2032
 41
0.2032
 70
0
  0
VERTEX
  8
22
 10
4.0979
 20
19.5067
 30
0.0000
 42
1.0000
  0
VERTEX
  8
22
 10
4.0979
 20
18.9140
 30
0.0000
  0
SEQEND
  8
0
  0
POLYLINE
  8
22
 66
1
 10
0.0000
 20
0.0000
 30
0.0000
 40
0.1016
 41
0.1016
 70
0
  0
VERTEX
  8
22
 10
4.0979
 20
19.4559
 30
0.0000
 42
1.0000
  0
VERTEX
  8
22
 10
4.0979
 20
19.5575
 30
0.0000
  0
SEQEND
  8
0
  0
POLYLINE
  8
22
 66
1
 10
0.0000
 20
0.0000
 30
0.0000
 40
0.1016
 41
0.1016
 70
0
  0
VERTEX
  8
22
 10
4.0979
 20
18.8632
 30
0.0000
 42
1.0000
  0
VERTEX
  8
22
 10
4.0979
 20
18.9648
 30
0.0000
  0
SEQEND
  8
0
  0
POLYLINE
  8
22
 66
1
 10
0.0000
 20
0.0000
 30
0.0000
 40
0.2032
 41
0.2032
 70
0
  0
VERTEX
  8
22
 10
4.0979
 20
19.5067
 30
0.0000
  0
VERTEX
  8
22
 10
4.8684
 20
19.5067
 30
0.0000
  0
SEQEND
  8
0
  0
POLYLINE
  8
22
 66
1
 10
0.0000
 20
0.0000
 30
0.0000
 40
0.1016
 41
0.1016
 70
0
  0
VERTEX
  8
22
 10
4.8684
 20
19.4559
 30
0.0000
 42
1.0000
  0
VERTEX
  8
22
 10
4.8684
 20
19.5575
 30
0.0000
  0
SEQEND
  8
0
  0
POLYLINE
  8
22
 66
1
 10
0.0000
 20
0.0000
 30
0.0000
 40
0.1016
 41
0.1016
 70
0
  0
VERTEX
  8
22
 10
4.0979
 20
19.5575
 30
0.0000
 42
1.0000
  0
VERTEX
  8
22
 10
4.0979
 20
19.4559
 30
0.0000
  0
SEQEND
  8
0
  0
POLYLINE
  8
22
 66
1
 10
0.0000
 20
0.0000
 30
0.0000
 40
0.2032
 41
0.2032
 70
0
  0
VERTEX
  8
22
 10
3.8016
 20
20.3153
 30
0.0000
  0
VERTEX
  8
22
 10
4.8684
 20
20.3153
 30
0.0000
  0
SEQEND
  8
0
  0
POLYLINE
  8
22
 66
1
 10
0.0000
 20
0.0000
 30
0.0000
 40
0.1016
 41
0.1016
 70
0
  0
VERTEX
  8
22
 10
4.8684
 20
20.2645
 30
0.0000
 42
1.0000
  0
VERTEX
  8
22
 10
4.8684
 20
20.3661
 30
0.0000
  0
SEQEND
  8
0
  0
POLYLINE
  8
22
 66
1
 10
0.0000
 20
0.0000
 30
0.0000
 40
0.1016
 41
0.1016
 70
0
  0
VERTEX
  8
22
 10
3.8016
 20
20.3661
 30
0.0000
 42
1.0000
  0
VERTEX
  8
22
 10
3.8016
 20
20.2645
 30
0.0000
  0
SEQEND
  8
0
  0
POLYLINE
  8
22
 66
1
 10
0.0000
 20
0.0000
 30
0.0000
 40
0.2032
 41
0.2032
 70
0
  0
VERTEX
  8
22
 10
4.3350
 20
20.3153
 30
0.0000
  0
VERTEX
  8
22
 10
4.4239
 20
20.1671
 30
0.0000
  0
SEQEND
  8
0
  0
POLYLINE
  8
22
 66
1
 10
0.0000
 20
0.0000
 30
0.0000
 40
0.1016
 41
0.1016
 70
0
  0
VERTEX
  8
22
 10
4.3803
 20
20.1410
 30
0.0000
 42
1.0000
  0
VERTEX
  8
22
 10
4.4675
 20
20.1932
 30
0.0000
  0
SEQEND
  8
0
  0
POLYLINE
  8
22
 66
1
 10
0.0000
 20
0.0000
 30
0.0000
 40
0.1016
 41
0.1016
 70
0
  0
VERTEX
  8
22
 10
4.3786
 20
20.3414
 30
0.0000
 42
1.0000
  0
VERTEX
  8
22
 10
4.2914
 20
20.2891
 30
0.0000
  0
SEQEND
  8
0
  0
POLYLINE
  8
22
 66
1
 10
0.0000
 20
0.0000
 30
0.0000
 40
0.2032
 41
0.2032
 70
0
  0
VERTEX
  8
22
 10
4.4239
 20
20.1671
 30
0.0000
 42
0.6917
  0
VERTEX
  8
22
 10
4.7499
 20
20.2264
 30
0.0000
  0
SEQEND
  8
0
  0
POLYLINE
  8
22
 66
1
 10
0.0000
 20
0.0000
 30
0.0000
 40
0.1016
 41
0.1016
 70
0
  0
VERTEX
  8
22
 10
4.4675
 20
20.1932
 30
0.0000
 42
1.0000
  0
VERTEX
  8
22
 10
4.3803
 20
20.1410
 30
0.0000
  0
SEQEND
  8
0
  0
POLYLINE
  8
22
 66
1
 10
0.0000
 20
0.0000
 30
0.0000
 40
0.1016
 41
0.1016
 70
0
  0
VERTEX
  8
22
 10
4.7998
 20
20.2172
 30
0.0000
 42
1.0000
  0
VERTEX
  8
22
 10
4.6999
 20
20.2355
 30
0.0000
  0
SEQEND
  8
0
  0
POLYLINE
  8
22
 66
1
 10
0.0000
 20
0.0000
 30
0.0000
 40
0.2032
 41
0.2032
 70
0
  0
VERTEX
  8
22
 10
4.7499
 20
20.2264
 30
0.0000
 42
0.1823
  0
VERTEX
  8
22
 10
4.6906
 20
20.5523
 30
0.0000
  0
SEQEND
  8
0
  0
POLYLINE
  8
22
 66
1
 10
0.0000
 20
0.0000
 30
0.0000
 40
0.1016
 41
0.1016
 70
0
  0
VERTEX
  8
22
 10
4.6999
 20
20.2355
 30
0.0000
 42
1.0000
  0
VERTEX
  8
22
 10
4.7998
 20
20.2172
 30
0.0000
  0
SEQEND
  8
0
  0
POLYLINE
  8
22
 66
1
 10
0.0000
 20
0.0000
 30
0.0000
 40
0.1016
 41
0.1016
 70
0
  0
VERTEX
  8
22
 10
4.7342
 20
20.5785
 30
0.0000
 42
1.0000
  0
VERTEX
  8
22
 10
4.6470
 20
20.5262
 30
0.0000
  0
SEQEND
  8
0
  0
POLYLINE
  8
22
 66
1
 10
0.0000
 20
0.0000
 30
0.0000
 40
0.2032
 41
0.2032
 70
0
  0
VERTEX
  8
22
 10
4.3350
 20
20.3153
 30
0.0000
  0
VERTEX
  8
22
 10
4.2461
 20
20.4634
 30
0.0000
  0
SEQEND
  8
0
  0
POLYLINE
  8
22
 66
1
 10
0.0000
 20
0.0000
 30
0.0000
 40
0.1016
 41
0.1016
 70
0
  0
VERTEX
  8
22
 10
4.2897
 20
20.4896
 30
0.0000
 42
1.0000
  0
VERTEX
  8
22
 10
4.2025
 20
20.4373
 30
0.0000
  0
SEQEND
  8
0
  0
POLYLINE
  8
22
 66
1
 10
0.0000
 20
0.0000
 30
0.0000
 40
0.1016
 41
0.1016
 70
0
  0
VERTEX
  8
22
 10
4.2914
 20
20.2891
 30
0.0000
 42
1.0000
  0
VERTEX
  8
22
 10
4.3786
 20
20.3414
 30
0.0000
  0
SEQEND
  8
0
  0
POLYLINE
  8
22
 66
1
 10
0.0000
 20
0.0000
 30
0.0000
 40
0.2032
 41
0.2032
 70
0
  0
VERTEX
  8
22
 10
4.2461
 20
20.4634
 30
0.0000
 42
0.6917
  0
VERTEX
  8
22
 10
3.9201
 20
20.4042
 30
0.0000
  0
SEQEND
  8
0
  0
POLYLINE
  8
22
 66
1
 10
0.0000
 20
0.0000
 30
0.0000
 40
0.1016
 41
0.1016
 70
0
  0
VERTEX
  8
22
 10
4.2025
 20
20.4373
 30
0.0000
 42
1.0000
  0
VERTEX
  8
22
 10
4.2897
 20
20.4896
 30
0.0000
  0
SEQEND
  8
0
  0
POLYLINE
  8
22
 66
1
 10
0.0000
 20
0.0000
 30
0.0000
 40
0.1016
 41
0.1016
 70
0
  0
VERTEX
  8
22
 10
3.8702
 20
20.4133
 30
0.0000
 42
1.0000
  0
VERTEX
  8
22
 10
3.9701
 20
20.3950
 30
0.0000
  0
SEQEND
  8
0
  0
POLYLINE
  8
22
 66
1
 10
0.0000
 20
0.0000
 30
0.0000
 40
0.2032
 41
0.2032
 70
0
  0
VERTEX
  8
22
 10
3.9201
 20
20.4042
 30
0.0000
 42
0.1823
  0
VERTEX
  8
22
 10
3.9794
 20
20.0782
 30
0.0000
  0
SEQEND
  8
0
  0
POLYLINE
  8
22
 66
1
 10
0.0000
 20
0.0000
 30
0.0000
 40
0.1016
 41
0.1016
 70
0
  0
VERTEX
  8
22
 10
3.9701
 20
20.3950
 30
0.0000
 42
1.0000
  0
VERTEX
  8
22
 10
3.8702
 20
20.4133
 30
0.0000
  0
SEQEND
  8
0
  0
POLYLINE
  8
22
 66
1
 10
0.0000
 20
0.0000
 30
0.0000
 40
0.1016
 41
0.1016
 70
0
  0
VERTEX
  8
22
 10
3.9358
 20
20.0521
 30
0.0000
 42
1.0000
  0
VERTEX
  8
22
 10
4.0230
 20
20.1043
 30
0.0000
  0
SEQEND
  8
0
  0
POLYLINE
  8
22
 66
1
 10
0.0000
 20
0.0000
 30
0.0000
 40
0.2032
 41
0.2032
 70
0
  0
VERTEX
  8
22
 10
4.6313
 20
21.0857
 30
0.0000
  0
VERTEX
  8
22
 10
4.8684
 20
21.3821
 30
0.0000
  0
SEQEND
  8
0
  0
POLYLINE
  8
22
 66
1
 10
0.0000
 20
0.0000
 30
0.0000
 40
0.1016
 41
0.1016
 70
0
  0
VERTEX
  8
22
 10
4.9081
 20
21.3503
 30
0.0000
 42
1.0000
  0
VERTEX
  8
22
 10
4.8287
 20
21.4138
 30
0.0000
  0
SEQEND
  8
0
  0
POLYLINE
  8
22
 66
1
 10
0.0000
 20
0.0000
 30
0.0000
 40
0.1016
 41
0.1016
 70
0
  0
VERTEX
  8
22
 10
4.5917
 20
21.1175
 30
0.0000
 42
1.0000
  0
VERTEX
  8
22
 10
4.6710
 20
21.0540
 30
0.0000
  0
SEQEND
  8
0
  0
POLYLINE
  8
22
 66
1
 10
0.0000
 20
0.0000
 30
0.0000
 40
0.2032
 41
0.2032
 70
0
  0
VERTEX
  8
22
 10
4.8684
 20
21.3821
 30
0.0000
  0
VERTEX
  8
22
 10
3.8016
 20
21.3821
 30
0.0000
  0
SEQEND
  8
0
  0
POLYLINE
  8
22
 66
1
 10
0.0000
 20
0.0000
 30
0.0000
 40
0.1016
 41
0.1016
 70
0
  0
VERTEX
  8
22
 10
3.8016
 20
21.4329
 30
0.0000
 42
1.0000
  0
VERTEX
  8
22
 10
3.8016
 20
21.3313
 30
0.0000
  0
SEQEND
  8
0
  0
POLYLINE
  8
22
 66
1
 10
0.0000
 20
0.0000
 30
0.0000
 40
0.1016
 41
0.1016
 70
0
  0
VERTEX
  8
22
 10
4.8684
 20
21.3313
 30
0.0000
 42
1.0000
  0
VERTEX
  8
22
 10
4.8684
 20
21.4329
 30
0.0000
  0
SEQEND
  8
0
  0
POLYLINE
  8
22
 66
1
 10
0.0000
 20
0.0000
 30
0.0000
 40
0.2032
 41
0.2032
 70
0
  0
VERTEX
  8
22
 10
3.8016
 20
21.0857
 30
0.0000
  0
VERTEX
  8
22
 10
3.8016
 20
21.6784
 30
0.0000
  0
SEQEND
  8
0
  0
POLYLINE
  8
22
 66
1
 10
0.0000
 20
0.0000
 30
0.0000
 40
0.1016
 41
0.1016
 70
0
  0
VERTEX
  8
22
 10
3.8524
 20
21.6784
 30
0.0000
 42
1.0000
  0
VERTEX
  8
22
 10
3.7508
 20
21.6784
 30
0.0000
  0
SEQEND
  8
0
  0
POLYLINE
  8
22
 66
1
 10
0.0000
 20
0.0000
 30
0.0000
 40
0.1016
 41
0.1016
 70
0
  0
VERTEX
  8
22
 10
3.7508
 20
21.0857
 30
0.0000
 42
1.0000
  0
VERTEX
  8
22
 10
3.8524
 20
21.0857
 30
0.0000
  0
SEQEND
  8
0
  0
POINT
  8
23
 10
14.6050
 20
17.7800
 30
0.0000
  0
POLYLINE
  8
51
 66
1
 10
0.0000
 20
0.0000
 30
0.0000
 40
0.2000
 41
0.2000
 70
0
  0
VERTEX
  8
51
 10
20.6550
 20
24.0700
 30
0.0000
  0
VERTEX
  8
51
 10
20.6550
 20
11.5700
 30
0.0000
  0
SEQEND
  8
0
  0
POLYLINE
  8
51
 66
1
 10
0.0000
 20
0.0000
 30
0.0000
 40
0.1000
 41
0.1000
 70
0
  0
VERTEX
  8
51
 10
20.6050
 20
11.5700
 30
0.0000
 42
1.0000
  0
VERTEX
  8
51
 10
20.7050
 20
11.5700
 30
0.0000
  0
SEQEND
  8
0
  0
POLYLINE
  8
51
 66
1
 10
0.0000
 20
0.0000
 30
0.0000
 40
0.1000
 41
0.1000
 70
0
  0
VERTEX
  8
51
 10
20.7050
 20
24.0700
 30
0.0000
 42
1.0000
  0
VERTEX
  8
51
 10
20.6050
 20
24.0700
 30
0.0000
  0
SEQEND
  8
0
  0
POLYLINE
  8
51
 66
1
 10
0.0000
 20
0.0000
 30
0.0000
 40
0.2000
 41
0.2000
 70
0
  0
VERTEX
  8
51
 10
20.6550
 20
11.5700
 30
0.0000
  0
VERTEX
  8
51
 10
7.2550
 20
11.5700
 30
0.0000
  0
SEQEND
  8
0
  0
POLYLINE
  8
51
 66
1
 10
0.0000
 20
0.0000
 30
0.0000
 40
0.1000
 41
0.1000
 70
0
  0
VERTEX
  8
51
 10
7.2550
 20
11.6200
 30
0.0000
 42
1.0000
  0
VERTEX
  8
51
 10
7.2550
 20
11.5200
 30
0.0000
  0
SEQEND
  8
0
  0
POLYLINE
  8
51
 66
1
 10
0.0000
 20
0.0000
 30
0.0000
 40
0.1000
 41
0.1000
 70
0
  0
VERTEX
  8
51
 10
20.6550
 20
11.5200
 30
0.0000
 42
1.0000
  0
VERTEX
  8
51
 10
20.6550
 20
11.6200
 30
0.0000
  0
SEQEND
  8
0
  0
POLYLINE
  8
51
 66
1
 10
0.0000
 20
0.0000
 30
0.0000
 40
0.2000
 41
0.2000
 70
0
  0
VERTEX
  8
51
 10
7.2550
 20
11.5700
 30
0.0000
  0
VERTEX
  8
51
 10
7.2550
 20
24.0700
 30
0.0000
  0
SEQEND
  8
0
  0
POLYLINE
  8
51
 66
1
 10
0.0000
 20
0.0000
 30
0.0000
 40
0.1000
 41
0.1000
 70
0
  0
VERTEX
  8
51
 10
7.3050
 20
24.0700
 30
0.0000
 42
1.0000
  0
VERTEX
  8
51
 10
7.2050
 20
24.0700
 30
0.0000
  0
SEQEND
  8
0
  0
POLYLINE
  8
51
 66
1
 10
0.0000
 20
0.0000
 30
0.0000
 40
0.1000
 41
0.1000
 70
0
  0
VERTEX
  8
51
 10
7.2050
 20
11.5700
 30
0.0000
 42
1.0000
  0
VERTEX
  8
51
 10
7.3050
 20
11.5700
 30
0.0000
  0
SEQEND
  8
0
  0
POLYLINE
  8
51
 66
1
 10
0.0000
 20
0.0000
 30
0.0000
 40
0.2000
 41
0.2000
 70
0
  0
VERTEX
  8
51
 10
7.2550
 20
24.0700
 30
0.0000
  0
VERTEX
  8
51
 10
20.6550
 20
24.0700
 30
0.0000
  0
SEQEND
  8
0
  0
POLYLINE
  8
51
 66
1
 10
0.0000
 20
0.0000
 30
0.0000
 40
0.1000
 41
0.1000
 70
0
  0
VERTEX
  8
51
 10
20.6550
 20
24.0200
 30
0.0000
 42
1.0000
  0
VERTEX
  8
51
 10
20.6550
 20
24.1200
 30
0.0000
  0
SEQEND
  8
0
  0
POLYLINE
  8
51
 66
1
 10
0.0000
 20
0.0000
 30
0.0000
 40
0.1000
 41
0.1000
 70
0
  0
VERTEX
  8
51
 10
7.2550
 20
24.1200
 30
0.0000
 42
1.0000
  0
VERTEX
  8
51
 10
7.2550
 20
24.0200
 30
0.0000
  0
SEQEND
  8
0
  0
POLYLINE
  8
21
 66
1
 10
0.0000
 20
0.0000
 30
0.0000
 40
0.1000
 41
0.1000
 70
0
  0
VERTEX
  8
21
 10
10.9550
 20
24.0700
 30
0.0000
  0
VERTEX
  8
21
 10
7.2550
 20
24.0700
 30
0.0000
  0
SEQEND
  8
0
  0
POLYLINE
  8
21
 66
1
 10
0.0000
 20
0.0000
 30
0.0000
 40
0.0500
 41
0.0500
 70
0
  0
VERTEX
  8
21
 10
7.2550
 20
24.0950
 30
0.0000
 42
1.0000
  0
VERTEX
  8
21
 10
7.2550
 20
24.0450
 30
0.0000
  0
SEQEND
  8
0
  0
POLYLINE
  8
21
 66
1
 10
0.0000
 20
0.0000
 30
0.0000
 40
0.0500
 41
0.0500
 70
0
  0
VERTEX
  8
21
 10
10.9550
 20
24.0450
 30
0.0000
 42
1.0000
  0
VERTEX
  8
21
 10
10.9550
 20
24.0950
 30
0.0000
  0
SEQEND
  8
0
  0
POLYLINE
  8
21
 66
1
 10
0.0000
 20
0.0000
 30
0.0000
 40
0.1000
 41
0.1000
 70
0
  0
VERTEX
  8
21
 10
7.2550
 20
24.0700
 30
0.0000
  0
VERTEX
  8
21
 10
7.2550
 20
21.8200
 30
0.0000
  0
SEQEND
  8
0
  0
POLYLINE
  8
21
 66
1
 10
0.0000
 20
0.0000
 30
0.0000
 40
0.0500
 41
0.0500
 70
0
  0
VERTEX
  8
21
 10
7.2300
 20
21.8200
 30
0.0000
 42
1.0000
  0
VERTEX
  8
21
 10
7.2800
 20
21.8200
 30
0.0000
  0
SEQEND
  8
0
  0
POLYLINE
  8
21
 66
1
 10
0.0000
 20
0.0000
 30
0.0000
 40
0.0500
 41
0.0500
 70
0
  0
VERTEX
  8
21
 10
7.2800
 20
24.0700
 30
0.0000
 42
1.0000
  0
VERTEX
  8
21
 10
7.2300
 20
24.0700
 30
0.0000
  0
SEQEND
  8
0
  0
POLYLINE
  8
21
 66
1
 10
0.0000
 20
0.0000
 30
0.0000
 40
0.1000
 41
0.1000
 70
0
  0
VERTEX
  8
21
 10
7.2550
 20
13.8200
 30
0.0000
  0
VERTEX
  8
21
 10
7.2550
 20
11.5700
 30
0.0000
  0
SEQEND
  8
0
  0
POLYLINE
  8
21
 66
1
 10
0.0000
 20
0.0000
 30
0.0000
 40
0.0500
 41
0.0500
 70
0
  0
VERTEX
  8
21
 10
7.2300
 20
11.5700
 30
0.0000
 42
1.0000
  0
VERTEX
  8
21
 10
7.2800
 20
11.5700
 30
0.0000
  0
SEQEND
  8
0
  0
POLYLINE
  8
21
 66
1
 10
0.0000
 20
0.0000
 30
0.0000
 40
0.0500
 41
0.0500
 70
0
  0
VERTEX
  8
21
 10
7.2800
 20
13.8200
 30
0.0000
 42
1.0000
  0
VERTEX
  8
21
 10
7.2300
 20
13.8200
 30
0.0000
  0
SEQEND
  8
0
  0
POLYLINE
  8
21
 66
1
 10
0.0000
 20
0.0000
 30
0.0000
 40
0.1000
 41
0.1000
 70
0
  0
VERTEX
  8
21
 10
7.2550
 20
11.5700
 30
0.0000
  0
VERTEX
  8
21
 10
10.9550
 20
11.5700
 30
0.0000
  0
SEQEND
  8
0
  0
POLYLINE
  8
21
 66
1
 10
0.0000
 20
0.0000
 30
0.0000
 40
0.0500
 41
0.0500
 70
0
  0
VERTEX
  8
21
 10
10.9550
 20
11.5450
 30
0.0000
 42
1.0000
  0
VERTEX
  8
21
 10
10.9550
 20
11.5950
 30
0.0000
  0
SEQEND
  8
0
  0
POLYLINE
  8
21
 66
1
 10
0.0000
 20
0.0000
 30
0.0000
 40
0.0500
 41
0.0500
 70
0
  0
VERTEX
  8
21
 10
7.2550
 20
11.5950
 30
0.0000
 42
1.0000
  0
VERTEX
  8
21
 10
7.2550
 20
11.5450
 30
0.0000
  0
SEQEND
  8
0
  0
POLYLINE
  8
21
 66
1
 10
0.0000
 20
0.0000
 30
0.0000
 40
0.1000
 41
0.1000
 70
0
  0
VERTEX
  8
21
 10
16.9550
 20
24.0700
 30
0.0000
  0
VERTEX
  8
21
 10
20.6550
 20
24.0700
 30
0.0000
  0
SEQEND
  8
0
  0
POLYLINE
  8
21
 66
1
 10
0.0000
 20
0.0000
 30
0.0000
 40
0.0500
 41
0.0500
 70
0
  0
VERTEX
  8
21
 10
20.6550
 20
24.0450
 30
0.0000
 42
1.0000
  0
VERTEX
  8
21
 10
20.6550
 20
24.0950
 30
0.0000
  0
SEQEND
  8
0
  0
POLYLINE
  8
21
 66
1
 10
0.0000
 20
0.0000
 30
0.0000
 40
0.0500
 41
0.0500
 70
0
  0
VERTEX
  8
21
 10
16.9550
 20
24.0950
 30
0.0000
 42
1.0000
  0
VERTEX
  8
21
 10
16.9550
 20
24.0450
 30
0.0000
  0
SEQEND
  8
0
  0
POLYLINE
  8
21
 66
1
 10
0.0000
 20
0.0000
 30
0.0000
 40
0.1000
 41
0.1000
 70
0
  0
VERTEX
  8
21
 10
20.6550
 20
24.0700
 30
0.0000
  0
VERTEX
  8
21
 10
20.6550
 20
21.8200
 30
0.0000
  0
SEQEND
  8
0
  0
POLYLINE
  8
21
 66
1
 10
0.0000
 20
0.0000
 30
0.0000
 40
0.0500
 41
0.0500
 70
0
  0
VERTEX
  8
21
 10
20.6300
 20
21.8200
 30
0.0000
 42
1.0000
  0
VERTEX
  8
21
 10
20.6800
 20
21.8200
 30
0.0000
  0
SEQEND
  8
0
  0
POLYLINE
  8
21
 66
1
 10
0.0000
 20
0.0000
 30
0.0000
 40
0.0500
 41
0.0500
 70
0
  0
VERTEX
  8
21
 10
20.6800
 20
24.0700
 30
0.0000
 42
1.0000
  0
VERTEX
  8
21
 10
20.6300
 20
24.0700
 30
0.0000
  0
SEQEND
  8
0
  0
POLYLINE
  8
21
 66
1
 10
0.0000
 20
0.0000
 30
0.0000
 40
0.1000
 41
0.1000
 70
0
  0
VERTEX
  8
21
 10
20.6550
 20
13.8200
 30
0.0000
  0
VERTEX
  8
21
 10
20.6550
 20
11.5700
 30
0.0000
  0
SEQEND
  8
0
  0
POLYLINE
  8
21
 66
1
 10
0.0000
 20
0.0000
 30
0.0000
 40
0.0500
 41
0.0500
 70
0
  0
VERTEX
  8
21
 10
20.6300
 20
11.5700
 30
0.0000
 42
1.0000
  0
VERTEX
  8
21
 10
20.6800
 20
11.5700
 30
0.0000
  0
SEQEND
  8
0
  0
POLYLINE
  8
21
 66
1
 10
0.0000
 20
0.0000
 30
0.0000
 40
0.0500
 41
0.0500
 70
0
  0
VERTEX
  8
21
 10
20.6800
 20
13.8200
 30
0.0000
 42
1.0000
  0
VERTEX
  8
21
 10
20.6300
 20
13.8200
 30
0.0000
  0
SEQEND
  8
0
  0
POLYLINE
  8
21
 66
1
 10
0.0000
 20
0.0000
 30
0.0000
 40
0.1000
 41
0.1000
 70
0
  0
VERTEX
  8
21
 10
20.6550
 20
11.5700
 30
0.0000
  0
VERTEX
  8
21
 10
16.9550
 20
11.5700
 30
0.0000
  0
SEQEND
  8
0
  0
POLYLINE
  8
21
 66
1
 10
0.0000
 20
0.0000
 30
0.0000
 40
0.0500
 41
0.0500
 70
0
  0
VERTEX
  8
21
 10
16.9550
 20
11.5950
 30
0.0000
 42
1.0000
  0
VERTEX
  8
21
 10
16.9550
 20
11.5450
 30
0.0000
  0
SEQEND
  8
0
  0
POLYLINE
  8
21
 66
1
 10
0.0000
 20
0.0000
 30
0.0000
 40
0.0500
 41
0.0500
 70
0
  0
VERTEX
  8
21
 10
20.6550
 20
11.5450
 30
0.0000
 42
1.0000
  0
VERTEX
  8
21
 10
20.6550
 20
11.5950
 30
0.0000
  0
SEQEND
  8
0
  0
INSERT
  8
17
  2
ROUNDP
 10
6.4550
 20
20.3200
 30
0.0000
 41
1.6500
 42
1.6500
 43
1.0000
 50
270.0000
  0
INSERT
  8
17
  2
ROUNDP
 10
6.4550
 20
20.3200
 30
0.0000
 41
1.6500
 42
1.6500
 43
1.0000
 50
270.0000
  0
INSERT
  8
17
  2
ROUNDP
 10
6.4550
 20
15.3200
 30
0.0000
 41
1.6500
 42
1.6500
 43
1.0000
 50
270.0000
  0
INSERT
  8
17
  2
ROUNDP
 10
6.4550
 20
15.3200
 30
0.0000
 41
1.6500
 42
1.6500
 43
1.0000
 50
270.0000
  0
INSERT
  8
17
  2
ROUNDP
 10
6.4550
 20
17.8200
 30
0.0000
 41
1.6500
 42
1.6500
 43
1.0000
 50
270.0000
  0
INSERT
  8
17
  2
ROUNDP
 10
6.4550
 20
17.8200
 30
0.0000
 41
1.6500
 42
1.6500
 43
1.0000
 50
270.0000
  0
INSERT
  8
17
  2
ROUNDP
 10
13.9550
 20
23.5200
 30
0.0000
 41
3.8160
 42
3.8160
 43
1.0000
 50
270.0000
  0
INSERT
  8
17
  2
ROUNDP
 10
13.9550
 20
23.5200
 30
0.0000
 41
3.8160
 42
3.8160
 43
1.0000
 50
270.0000
  0
INSERT
  8
17
  2
ROUNDP
 10
13.9550
 20
12.1200
 30
0.0000
 41
3.8160
 42
3.8160
 43
1.0000
 50
270.0000
  0
INSERT
  8
17
  2
ROUNDP
 10
13.9550
 20
12.1200
 30
0.0000
 41
3.8160
 42
3.8160
 43
1.0000
 50
270.0000
  0
POLYLINE
  8
25
 66
1
 10
0.0000
 20
0.0000
 30
0.0000
 40
0.1016
 41
0.1016
 70
0
  0
VERTEX
  8
25
 10
14.3908
 20
16.3009
 30
0.0000
  0
VERTEX
  8
25
 10
15.5592
 20
16.6904
 30
0.0000
  0
SEQEND
  8
0
  0
POLYLINE
  8
25
 66
1
 10
0.0000
 20
0.0000
 30
0.0000
 40
0.0508
 41
0.0508
 70
0
  0
VERTEX
  8
25
 10
15.5672
 20
16.6663
 30
0.0000
 42
1.0000
  0
VERTEX
  8
25
 10
15.5512
 20
16.7145
 30
0.0000
  0
SEQEND
  8
0
  0
POLYLINE
  8
25
 66
1
 10
0.0000
 20
0.0000
 30
0.0000
 40
0.0508
 41
0.0508
 70
0
  0
VERTEX
  8
25
 10
14.3828
 20
16.3250
 30
0.0000
 42
1.0000
  0
VERTEX
  8
25
 10
14.3988
 20
16.2768
 30
0.0000
  0
SEQEND
  8
0
  0
POLYLINE
  8
25
 66
1
 10
0.0000
 20
0.0000
 30
0.0000
 40
0.1016
 41
0.1016
 70
0
  0
VERTEX
  8
25
 10
15.5592
 20
16.6904
 30
0.0000
  0
VERTEX
  8
25
 10
14.3908
 20
17.0799
 30
0.0000
  0
SEQEND
  8
0
  0
POLYLINE
  8
25
 66
1
 10
0.0000
 20
0.0000
 30
0.0000
 40
0.0508
 41
0.0508
 70
0
  0
VERTEX
  8
25
 10
14.3988
 20
17.1040
 30
0.0000
 42
1.0000
  0
VERTEX
  8
25
 10
14.3828
 20
17.0558
 30
0.0000
  0
SEQEND
  8
0
  0
POLYLINE
  8
25
 66
1
 10
0.0000
 20
0.0000
 30
0.0000
 40
0.0508
 41
0.0508
 70
0
  0
VERTEX
  8
25
 10
15.5512
 20
16.6663
 30
0.0000
 42
1.0000
  0
VERTEX
  8
25
 10
15.5672
 20
16.7145
 30
0.0000
  0
SEQEND
  8
0
  0
POLYLINE
  8
25
 66
1
 10
0.0000
 20
0.0000
 30
0.0000
 40
0.1016
 41
0.1016
 70
0
  0
VERTEX
  8
25
 10
15.5592
 20
17.5543
 30
0.0000
  0
VERTEX
  8
25
 10
14.3908
 20
17.5543
 30
0.0000
  0
SEQEND
  8
0
  0
POLYLINE
  8
25
 66
1
 10
0.0000
 20
0.0000
 30
0.0000
 40
0.0508
 41
0.0508
 70
0
  0
VERTEX
  8
25
 10
14.3908
 20
17.5797
 30
0.0000
 42
1.0000
  0
VERTEX
  8
25
 10
14.3908
 20
17.5289
 30
0.0000
  0
SEQEND
  8
0
  0
POLYLINE
  8
25
 66
1
 10
0.0000
 20
0.0000
 30
0.0000
 40
0.0508
 41
0.0508
 70
0
  0
VERTEX
  8
25
 10
15.5592
 20
17.5289
 30
0.0000
 42
1.0000
  0
VERTEX
  8
25
 10
15.5592
 20
17.5797
 30
0.0000
  0
SEQEND
  8
0
  0
POLYLINE
  8
25
 66
1
 10
0.0000
 20
0.0000
 30
0.0000
 40
0.1016
 41
0.1016
 70
0
  0
VERTEX
  8
25
 10
14.3908
 20
17.5543
 30
0.0000
  0
VERTEX
  8
25
 10
14.3908
 20
17.8789
 30
0.0000
  0
SEQEND
  8
0
  0
POLYLINE
  8
25
 66
1
 10
0.0000
 20
0.0000
 30
0.0000
 40
0.0508
 41
0.0508
 70
0
  0
VERTEX
  8
25
 10
14.4162
 20
17.8789
 30
0.0000
 42
1.0000
  0
VERTEX
  8
25
 10
14.3654
 20
17.8789
 30
0.0000
  0
SEQEND
  8
0
  0
POLYLINE
  8
25
 66
1
 10
0.0000
 20
0.0000
 30
0.0000
 40
0.0508
 41
0.0508
 70
0
  0
VERTEX
  8
25
 10
14.3654
 20
17.5543
 30
0.0000
 42
1.0000
  0
VERTEX
  8
25
 10
14.4162
 20
17.5543
 30
0.0000
  0
SEQEND
  8
0
  0
POLYLINE
  8
25
 66
1
 10
0.0000
 20
0.0000
 30
0.0000
 40
0.1016
 41
0.1016
 70
0
  0
VERTEX
  8
25
 10
15.0399
 20
17.8789
 30
0.0000
 42
1.0000
  0
VERTEX
  8
25
 10
14.3908
 20
17.8789
 30
0.0000
  0
SEQEND
  8
0
  0
POLYLINE
  8
25
 66
1
 10
0.0000
 20
0.0000
 30
0.0000
 40
0.0508
 41
0.0508
 70
0
  0
VERTEX
  8
25
 10
15.0145
 20
17.8789
 30
0.0000
 42
1.0000
  0
VERTEX
  8
25
 10
15.0653
 20
17.8789
 30
0.0000
  0
SEQEND
  8
0
  0
POLYLINE
  8
25
 66
1
 10
0.0000
 20
0.0000
 30
0.0000
 40
0.0508
 41
0.0508
 70
0
  0
VERTEX
  8
25
 10
14.3654
 20
17.8789
 30
0.0000
 42
1.0000
  0
VERTEX
  8
25
 10
14.4162
 20
17.8789
 30
0.0000
  0
SEQEND
  8
0
  0
POLYLINE
  8
25
 66
1
 10
0.0000
 20
0.0000
 30
0.0000
 40
0.1016
 41
0.1016
 70
0
  0
VERTEX
  8
25
 10
15.0399
 20
17.8789
 30
0.0000
  0
VERTEX
  8
25
 10
15.0399
 20
17.5543
 30
0.0000
  0
SEQEND
  8
0
  0
POLYLINE
  8
25
 66
1
 10
0.0000
 20
0.0000
 30
0.0000
 40
0.0508
 41
0.0508
 70
0
  0
VERTEX
  8
25
 10
15.0145
 20
17.5543
 30
0.0000
 42
1.0000
  0
VERTEX
  8
25
 10
15.0653
 20
17.5543
 30
0.0000
  0
SEQEND
  8
0
  0
POLYLINE
  8
25
 66
1
 10
0.0000
 20
0.0000
 30
0.0000
 40
0.0508
 41
0.0508
 70
0
  0
VERTEX
  8
25
 10
15.0653
 20
17.8789
 30
0.0000
 42
1.0000
  0
VERTEX
  8
25
 10
15.0145
 20
17.8789
 30
0.0000
  0
SEQEND
  8
0
  0
POLYLINE
  8
25
 66
1
 10
0.0000
 20
0.0000
 30
0.0000
 40
0.1016
 41
0.1016
 70
0
  0
VERTEX
  8
25
 10
15.5592
 20
18.2034
 30
0.0000
  0
VERTEX
  8
25
 10
15.0399
 20
17.9438
 30
0.0000
  0
SEQEND
  8
0
  0
POLYLINE
  8
25
 66
1
 10
0.0000
 20
0.0000
 30
0.0000
 40
0.0508
 41
0.0508
 70
0
  0
VERTEX
  8
25
 10
15.0286
 20
17.9665
 30
0.0000
 42
1.0000
  0
VERTEX
  8
25
 10
15.0513
 20
17.9211
 30
0.0000
  0
SEQEND
  8
0
  0
POLYLINE
  8
25
 66
1
 10
0.0000
 20
0.0000
 30
0.0000
 40
0.0508
 41
0.0508
 70
0
  0
VERTEX
  8
25
 10
15.5706
 20
18.1807
 30
0.0000
 42
1.0000
  0
VERTEX
  8
25
 10
15.5478
 20
18.2261
 30
0.0000
  0
SEQEND
  8
0
  0
POLYLINE
  8
25
 66
1
 10
0.0000
 20
0.0000
 30
0.0000
 40
0.1016
 41
0.1016
 70
0
  0
VERTEX
  8
25
 10
14.6504
 20
18.6899
 30
0.0000
  0
VERTEX
  8
25
 10
14.3908
 20
19.0145
 30
0.0000
  0
SEQEND
  8
0
  0
POLYLINE
  8
25
 66
1
 10
0.0000
 20
0.0000
 30
0.0000
 40
0.0508
 41
0.0508
 70
0
  0
VERTEX
  8
25
 10
14.4106
 20
19.0304
 30
0.0000
 42
1.0000
  0
VERTEX
  8
25
 10
14.3710
 20
18.9986
 30
0.0000
  0
SEQEND
  8
0
  0
POLYLINE
  8
25
 66
1
 10
0.0000
 20
0.0000
 30
0.0000
 40
0.0508
 41
0.0508
 70
0
  0
VERTEX
  8
25
 10
14.6306
 20
18.6741
 30
0.0000
 42
1.0000
  0
VERTEX
  8
25
 10
14.6703
 20
18.7058
 30
0.0000
  0
SEQEND
  8
0
  0
POLYLINE
  8
25
 66
1
 10
0.0000
 20
0.0000
 30
0.0000
 40
0.1016
 41
0.1016
 70
0
  0
VERTEX
  8
25
 10
14.3908
 20
19.0145
 30
0.0000
  0
VERTEX
  8
25
 10
15.5592
 20
19.0145
 30
0.0000
  0
SEQEND
  8
0
  0
POLYLINE
  8
25
 66
1
 10
0.0000
 20
0.0000
 30
0.0000
 40
0.0508
 41
0.0508
 70
0
  0
VERTEX
  8
25
 10
15.5592
 20
18.9891
 30
0.0000
 42
1.0000
  0
VERTEX
  8
25
 10
15.5592
 20
19.0399
 30
0.0000
  0
SEQEND
  8
0
  0
POLYLINE
  8
25
 66
1
 10
0.0000
 20
0.0000
 30
0.0000
 40
0.0508
 41
0.0508
 70
0
  0
VERTEX
  8
25
 10
14.3908
 20
19.0399
 30
0.0000
 42
1.0000
  0
VERTEX
  8
25
 10
14.3908
 20
18.9891
 30
0.0000
  0
SEQEND
  8
0
  0
POLYLINE
  8
25
 66
1
 10
0.0000
 20
0.0000
 30
0.0000
 40
0.1016
 41
0.1016
 70
0
  0
VERTEX
  8
25
 10
15.5592
 20
18.6899
 30
0.0000
  0
VERTEX
  8
25
 10
15.5592
 20
19.3391
 30
0.0000
  0
SEQEND
  8
0
  0
POLYLINE
  8
25
 66
1
 10
0.0000
 20
0.0000
 30
0.0000
 40
0.0508
 41
0.0508
 70
0
  0
VERTEX
  8
25
 10
15.5846
 20
19.3391
 30
0.0000
 42
1.0000
  0
VERTEX
  8
25
 10
15.5338
 20
19.3391
 30
0.0000
  0
SEQEND
  8
0
  0
POLYLINE
  8
25
 66
1
 10
0.0000
 20
0.0000
 30
0.0000
 40
0.0508
 41
0.0508
 70
0
  0
VERTEX
  8
25
 10
15.5338
 20
18.6899
 30
0.0000
 42
1.0000
  0
VERTEX
  8
25
 10
15.5846
 20
18.6899
 30
0.0000
  0
SEQEND
  8
0
  0
ENDSEC
  0
EOF
